<svg xmlns="http://www.w3.org/2000/svg" width="937" height="142" viewBox="0 0 937 142" fill="none">
<path d="M56.5004 123.311C78.697 118.706 93.0398 96.5762 88.5359 73.8826C84.0321 51.189 62.3871 36.525 40.1905 41.1297C17.9939 45.7344 3.65109 67.864 8.15493 90.5577C12.6588 113.251 34.3038 127.915 56.5004 123.311Z" fill="#5E72E4"/>
<path d="M221.61 66.202C221.61 69.262 220.76 71.914 219.06 74.158C217.428 76.334 215.048 78.034 211.92 79.258C215.864 80.55 218.822 82.454 220.794 84.97C222.766 87.486 223.752 90.512 223.752 94.048C223.752 100.644 221.304 105.54 216.408 108.736C211.58 111.932 204.576 113.53 195.396 113.53C194.172 113.53 192.778 113.496 191.214 113.428C189.718 113.36 188.154 113.224 186.522 113.02C184.958 112.884 183.36 112.646 181.728 112.306C180.164 112.034 178.736 111.66 177.444 111.184C173.908 109.892 172.14 107.58 172.14 104.248V55.696C172.14 54.336 172.48 53.282 173.16 52.534C173.908 51.786 174.962 51.208 176.322 50.8C178.566 50.052 181.354 49.508 184.686 49.168C188.018 48.76 191.452 48.556 194.988 48.556C203.488 48.556 210.05 50.018 214.674 52.942C219.298 55.798 221.61 60.218 221.61 66.202ZM207.432 93.334C207.432 88.506 204.338 86.092 198.15 86.092H187.644V100.372C188.732 100.644 190.092 100.848 191.724 100.984C193.356 101.12 194.92 101.188 196.416 101.188C199.68 101.188 202.332 100.576 204.372 99.352C206.412 98.06 207.432 96.054 207.432 93.334ZM187.644 74.77H197.13C199.782 74.77 201.856 74.158 203.352 72.934C204.848 71.71 205.596 69.908 205.596 67.528C205.596 65.352 204.712 63.686 202.944 62.53C201.244 61.306 198.66 60.694 195.192 60.694C193.9 60.694 192.54 60.762 191.112 60.898C189.684 60.966 188.528 61.068 187.644 61.204V74.77ZM283.045 87.418C283.045 91.43 282.433 95.068 281.209 98.332C279.985 101.528 278.217 104.248 275.905 106.492C273.661 108.736 270.941 110.47 267.745 111.694C264.549 112.918 260.979 113.53 257.035 113.53C253.091 113.53 249.487 112.952 246.223 111.796C243.027 110.572 240.273 108.838 237.961 106.594C235.717 104.35 233.983 101.63 232.759 98.434C231.535 95.17 230.923 91.498 230.923 87.418C230.923 83.474 231.535 79.904 232.759 76.708C234.051 73.444 235.819 70.69 238.063 68.446C240.375 66.202 243.129 64.468 246.325 63.244C249.589 62.02 253.159 61.408 257.035 61.408C260.911 61.408 264.447 62.02 267.643 63.244C270.839 64.468 273.559 66.236 275.803 68.548C278.115 70.792 279.883 73.512 281.107 76.708C282.399 79.904 283.045 83.474 283.045 87.418ZM257.035 73.648C253.839 73.648 251.357 74.838 249.589 77.218C247.821 79.598 246.937 82.998 246.937 87.418C246.937 91.974 247.787 95.442 249.487 97.822C251.255 100.134 253.771 101.29 257.035 101.29C260.299 101.29 262.781 100.1 264.481 97.72C266.249 95.34 267.133 91.906 267.133 87.418C267.133 83.066 266.249 79.7 264.481 77.32C262.713 74.872 260.231 73.648 257.035 73.648ZM308.349 111.898C307.669 112.102 306.717 112.272 305.493 112.408C304.269 112.612 302.909 112.714 301.413 112.714C298.353 112.714 296.143 112.238 294.783 111.286C293.491 110.266 292.845 108.328 292.845 105.472V63.55C293.525 63.346 294.477 63.142 295.701 62.938C296.925 62.734 298.285 62.632 299.781 62.632C302.841 62.632 305.017 63.142 306.309 64.162C307.669 65.182 308.349 67.12 308.349 69.976V111.898ZM291.927 48.862C291.927 46.55 292.709 44.578 294.273 42.946C295.905 41.314 298.013 40.498 300.597 40.498C303.181 40.498 305.255 41.314 306.819 42.946C308.451 44.578 309.267 46.55 309.267 48.862C309.267 51.242 308.451 53.248 306.819 54.88C305.255 56.512 303.181 57.328 300.597 57.328C298.013 57.328 295.905 56.512 294.273 54.88C292.709 53.248 291.927 51.242 291.927 48.862ZM329.505 112.714C326.445 112.714 324.235 112.238 322.875 111.286C321.583 110.266 320.937 108.328 320.937 105.472V45.598C321.617 45.394 322.569 45.19 323.793 44.986C325.085 44.782 326.479 44.68 327.975 44.68C330.967 44.68 333.143 45.19 334.503 46.21C335.863 47.23 336.543 49.168 336.543 52.024V111.898C335.795 112.102 334.809 112.272 333.585 112.408C332.361 112.612 331.001 112.714 329.505 112.714ZM361.874 93.946C362.826 96.802 364.492 98.842 366.872 100.066C369.252 101.222 372.006 101.8 375.134 101.8C377.99 101.8 380.676 101.426 383.192 100.678C385.708 99.862 387.748 98.978 389.312 98.026C390.332 98.706 391.182 99.59 391.862 100.678C392.542 101.766 392.882 102.956 392.882 104.248C392.882 105.812 392.406 107.172 391.454 108.328C390.502 109.484 389.176 110.47 387.476 111.286C385.844 112.034 383.872 112.578 381.56 112.918C379.316 113.326 376.834 113.53 374.114 113.53C370.102 113.53 366.396 112.986 362.996 111.898C359.596 110.742 356.672 109.076 354.224 106.9C351.776 104.656 349.838 101.868 348.41 98.536C347.05 95.204 346.37 91.294 346.37 86.806C346.37 82.454 347.05 78.68 348.41 75.484C349.838 72.288 351.708 69.636 354.02 67.528C356.4 65.42 359.086 63.89 362.078 62.938C365.138 61.918 368.266 61.408 371.462 61.408C374.93 61.408 378.092 61.952 380.948 63.04C383.872 64.06 386.354 65.522 388.394 67.426C390.502 69.33 392.134 71.608 393.29 74.26C394.446 76.912 395.024 79.802 395.024 82.93C395.024 85.106 394.446 86.738 393.29 87.826C392.134 88.914 390.502 89.628 388.394 89.968L361.874 93.946ZM371.564 72.934C368.64 72.934 366.192 73.852 364.22 75.688C362.316 77.456 361.194 80.04 360.854 83.44L380.336 80.278C380.2 78.51 379.418 76.844 377.99 75.28C376.562 73.716 374.42 72.934 371.564 72.934ZM419.603 111.898C418.923 112.102 417.971 112.272 416.747 112.408C415.523 112.612 414.163 112.714 412.667 112.714C409.607 112.714 407.397 112.238 406.037 111.286C404.677 110.266 403.997 108.328 403.997 105.472V74.362C403.997 72.458 404.473 70.826 405.425 69.466C406.377 68.106 407.703 66.916 409.403 65.896C411.647 64.536 414.333 63.482 417.461 62.734C420.657 61.918 423.989 61.51 427.457 61.51C434.529 61.51 438.065 63.89 438.065 68.65C438.065 69.806 437.895 70.86 437.555 71.812C437.215 72.764 436.841 73.58 436.433 74.26C434.869 73.92 432.965 73.75 430.721 73.75C428.749 73.75 426.777 73.988 424.805 74.464C422.833 74.94 421.099 75.586 419.603 76.402V111.898ZM469.021 113.53C467.253 113.53 465.621 113.36 464.125 113.02C462.629 112.748 461.269 112.374 460.045 111.898V130.156C459.365 130.36 458.413 130.564 457.189 130.768C455.965 130.972 454.605 131.074 453.109 131.074C450.049 131.074 447.839 130.564 446.479 129.544C445.119 128.524 444.439 126.586 444.439 123.73V73.24C444.439 71.472 444.813 70.044 445.561 68.956C446.309 67.8 447.363 66.78 448.723 65.896C450.763 64.604 453.381 63.55 456.577 62.734C459.773 61.85 463.309 61.408 467.185 61.408C471.129 61.408 474.733 61.918 477.997 62.938C481.329 63.89 484.185 65.42 486.565 67.528C488.945 69.636 490.781 72.322 492.073 75.586C493.433 78.85 494.113 82.726 494.113 87.214C494.113 91.498 493.467 95.306 492.175 98.638C490.951 101.902 489.217 104.656 486.973 106.9C484.729 109.076 482.077 110.742 479.017 111.898C475.957 112.986 472.625 113.53 469.021 113.53ZM466.675 101.188C470.347 101.188 473.169 100.032 475.141 97.72C477.181 95.408 478.201 91.906 478.201 87.214C478.201 82.386 477.215 78.918 475.243 76.81C473.339 74.702 470.653 73.648 467.185 73.648C465.621 73.648 464.261 73.852 463.105 74.26C461.949 74.6 460.895 75.008 459.943 75.484V99.454C460.895 99.998 461.915 100.44 463.003 100.78C464.091 101.052 465.315 101.188 466.675 101.188ZM512.587 112.714C509.527 112.714 507.317 112.238 505.957 111.286C504.665 110.266 504.019 108.328 504.019 105.472V45.598C504.699 45.394 505.651 45.19 506.875 44.986C508.167 44.782 509.561 44.68 511.057 44.68C514.049 44.68 516.225 45.19 517.585 46.21C518.945 47.23 519.625 49.168 519.625 52.024V111.898C518.877 112.102 517.891 112.272 516.667 112.408C515.443 112.612 514.083 112.714 512.587 112.714ZM552.096 102.106C553.592 102.106 555.054 101.97 556.482 101.698C557.978 101.358 559.1 100.95 559.848 100.474V91.09L551.484 91.804C549.308 92.008 547.54 92.518 546.18 93.334C544.888 94.082 544.242 95.238 544.242 96.802C544.242 98.434 544.854 99.726 546.078 100.678C547.302 101.63 549.308 102.106 552.096 102.106ZM551.484 61.408C555.02 61.408 558.216 61.782 561.072 62.53C563.996 63.21 566.478 64.298 568.518 65.794C570.558 67.29 572.122 69.194 573.21 71.506C574.366 73.818 574.944 76.538 574.944 79.666V102.718C574.944 104.486 574.468 105.914 573.516 107.002C572.632 108.022 571.544 108.906 570.252 109.654C568.144 110.946 565.56 111.932 562.5 112.612C559.44 113.292 555.972 113.632 552.096 113.632C545.092 113.632 539.516 112.306 535.368 109.654C531.22 106.934 529.146 102.82 529.146 97.312C529.146 92.62 530.54 89.05 533.328 86.602C536.116 84.154 540.4 82.624 546.18 82.012L559.746 80.584V79.462C559.746 77.286 558.862 75.688 557.094 74.668C555.326 73.648 552.776 73.138 549.444 73.138C546.86 73.138 544.31 73.444 541.794 74.056C539.346 74.668 537.136 75.382 535.164 76.198C534.348 75.654 533.634 74.838 533.022 73.75C532.478 72.594 532.206 71.37 532.206 70.078C532.206 67.086 533.77 64.944 536.898 63.652C538.87 62.904 541.148 62.36 543.732 62.02C546.384 61.612 548.968 61.408 551.484 61.408ZM601.888 95.782C601.888 97.686 602.5 99.08 603.724 99.964C604.948 100.78 606.648 101.188 608.824 101.188C609.844 101.188 610.932 101.086 612.088 100.882C613.244 100.61 614.23 100.304 615.046 99.964C615.658 100.644 616.168 101.426 616.576 102.31C616.984 103.194 617.188 104.214 617.188 105.37C617.188 107.75 616.236 109.722 614.332 111.286C612.496 112.782 609.266 113.53 604.642 113.53C598.93 113.53 594.476 112.238 591.28 109.654C588.084 107.002 586.486 102.718 586.486 96.802V51.004C587.234 50.8 588.22 50.596 589.444 50.392C590.668 50.12 591.994 49.984 593.422 49.984C596.414 49.984 598.556 50.528 599.848 51.616C601.208 52.636 601.888 54.54 601.888 57.328V63.958H615.964C616.304 64.638 616.644 65.522 616.984 66.61C617.324 67.63 617.494 68.718 617.494 69.874C617.494 72.05 616.984 73.614 615.964 74.566C615.012 75.518 613.754 75.994 612.19 75.994H601.888V95.782ZM638.888 93.946C639.84 96.802 641.506 98.842 643.886 100.066C646.266 101.222 649.02 101.8 652.148 101.8C655.004 101.8 657.69 101.426 660.206 100.678C662.722 99.862 664.762 98.978 666.326 98.026C667.346 98.706 668.196 99.59 668.876 100.678C669.556 101.766 669.896 102.956 669.896 104.248C669.896 105.812 669.42 107.172 668.468 108.328C667.516 109.484 666.19 110.47 664.49 111.286C662.858 112.034 660.886 112.578 658.574 112.918C656.33 113.326 653.848 113.53 651.128 113.53C647.116 113.53 643.41 112.986 640.01 111.898C636.61 110.742 633.686 109.076 631.238 106.9C628.79 104.656 626.852 101.868 625.424 98.536C624.064 95.204 623.384 91.294 623.384 86.806C623.384 82.454 624.064 78.68 625.424 75.484C626.852 72.288 628.722 69.636 631.034 67.528C633.414 65.42 636.1 63.89 639.092 62.938C642.152 61.918 645.28 61.408 648.476 61.408C651.944 61.408 655.106 61.952 657.962 63.04C660.886 64.06 663.368 65.522 665.408 67.426C667.516 69.33 669.148 71.608 670.304 74.26C671.46 76.912 672.038 79.802 672.038 82.93C672.038 85.106 671.46 86.738 670.304 87.826C669.148 88.914 667.516 89.628 665.408 89.968L638.888 93.946ZM648.578 72.934C645.654 72.934 643.206 73.852 641.234 75.688C639.33 77.456 638.208 80.04 637.868 83.44L657.35 80.278C657.214 78.51 656.432 76.844 655.004 75.28C653.576 73.716 651.434 72.934 648.578 72.934Z" fill="white"/>
<path d="M138.585 109.6C153.174 91.8873 150.956 65.4371 133.631 50.5217C116.306 35.6063 90.4355 37.8739 75.8468 55.5865C61.2581 73.2991 63.476 99.7493 80.8007 114.665C98.1253 129.58 123.996 127.312 138.585 109.6Z" fill="#FB6340"/>
</svg>