<svg xmlns="http://www.w3.org/2000/svg" version="1.0" width="2344.000000pt" height="1224.000000pt" viewBox="0 0 2344.000000 1224.000000" preserveAspectRatio="xMidYMid meet">

<g transform="translate(0.000000,1224.000000) scale(0.100000,-0.100000)" fill="#000000" stroke="none">
<path d="M16667 9843 c-2 -5 -2 -54 1 -110 l4 -103 49 0 49 0 0 49 c0 26 3 76 6 110 l7 61 -56 0 c-31 0 -58 -3 -60 -7z"/>
<path d="M14885 9813 c-34 -8 -55 -34 -55 -70 0 -46 29 -73 80 -73 51 0 80 27 80 73 0 50 -49 82 -105 70z"/>
<path d="M8910 9678 l0 -131 -22 21 c-33 30 -71 42 -137 42 -111 0 -198 -73 -221 -186 -28 -132 20 -247 123 -299 79 -39 180 -30 227 20 26 28 40 25 40 -11 0 -23 3 -24 60 -24 l60 0 0 350 0 350 -65 0 -65 0 0 -132z m-49 -209 c37 -26 52 -70 47 -131 -5 -44 -11 -57 -42 -85 -29 -27 -44 -33 -81 -33 -37 0 -52 6 -82 34 -33 30 -37 39 -41 92 -3 50 0 65 20 94 40 59 118 72 179 29z"/>
<path d="M6275 9788 c-83 -29 -128 -94 -127 -184 1 -99 36 -134 193 -194 55 -21 108 -45 119 -55 44 -40 31 -107 -26 -131 -63 -26 -134 2 -156 62 l-12 34 -68 0 c-64 0 -68 -1 -68 -23 0 -41 50 -127 89 -151 80 -51 218 -58 300 -17 103 53 140 181 80 278 -26 41 -65 65 -179 107 -109 41 -130 57 -130 102 0 71 96 100 151 45 16 -16 29 -37 29 -45 0 -13 13 -16 70 -16 66 0 70 1 70 23 -1 65 -64 141 -139 166 -42 14 -155 13 -196 -1z"/>
<path d="M9392 9543 c3 -162 9 -258 17 -278 25 -63 63 -105 120 -132 47 -24 69 -28 136 -28 67 0 89 4 135 27 30 15 68 44 84 65 48 60 56 112 56 365 l0 228 -64 0 -64 0 -4 -232 c-4 -254 -9 -278 -64 -315 -33 -21 -109 -22 -150 0 -58 30 -64 59 -64 316 l0 231 -71 0 -71 0 4 -247z"/>
<path d="M10880 9784 c0 -4 50 -102 110 -219 l110 -212 0 -122 0 -121 70 0 70 0 0 122 0 121 110 213 c61 117 110 215 110 218 0 3 -33 6 -73 6 l-74 0 -68 -145 c-38 -80 -71 -145 -74 -145 -3 0 -37 65 -75 145 l-69 145 -73 0 c-41 0 -74 -3 -74 -6z"/>
<path d="M13270 9450 l0 -340 65 0 65 0 0 130 0 130 94 0 c102 0 144 10 194 47 65 49 93 155 63 246 -15 44 -77 100 -130 115 -22 7 -105 12 -195 12 l-156 0 0 -340z m325 206 c45 -45 45 -107 0 -152 -22 -22 -33 -24 -110 -24 l-85 0 0 100 0 100 85 0 c77 0 88 -2 110 -24z"/>
<path d="M16335 9728 c-2 -7 -6 -39 -10 -70 l-6 -58 -40 0 -39 0 0 -55 0 -55 39 0 39 0 4 -137 c2 -97 7 -147 18 -167 24 -47 72 -69 161 -74 l79 -5 0 61 0 61 -52 3 c-69 4 -78 21 -78 156 l0 102 65 0 65 0 0 55 0 54 -62 3 -63 3 -3 68 -3 67 -55 0 c-35 0 -56 -5 -59 -12z"/>
<path d="M6935 9594 c-16 -8 -37 -22 -46 -30 -22 -20 -29 -18 -29 11 0 24 -3 25 -60 25 l-60 0 0 -350 0 -350 65 0 65 0 0 130 0 130 40 -26 c103 -68 252 -29 313 83 72 133 29 306 -92 370 -53 28 -149 32 -196 7z m105 -110 c58 -23 84 -70 78 -141 -4 -49 -10 -61 -41 -90 -29 -26 -45 -33 -78 -33 -80 0 -129 52 -129 138 0 62 31 112 80 129 45 15 43 16 90 -3z"/>
<path d="M7494 9591 c-49 -23 -107 -88 -122 -140 -20 -63 -15 -165 9 -216 51 -108 189 -161 310 -120 66 23 139 99 139 146 0 5 -28 9 -61 9 -54 0 -66 -4 -96 -30 -38 -34 -77 -39 -123 -15 -28 14 -60 60 -60 85 0 6 61 10 181 10 l182 0 -6 65 c-10 102 -58 176 -139 209 -52 22 -162 20 -214 -3z m187 -120 c53 -53 43 -61 -80 -61 -104 0 -109 1 -104 20 10 38 60 70 110 70 36 0 50 -6 74 -29z"/>
<path d="M8072 9589 c-118 -59 -168 -225 -106 -355 78 -164 327 -180 424 -27 16 25 27 50 24 54 -3 5 -34 9 -70 9 -49 0 -66 -4 -71 -15 -7 -21 -56 -45 -88 -45 -39 0 -82 29 -100 66 -8 18 -15 35 -15 38 0 3 81 6 180 6 l180 0 0 54 c0 97 -51 179 -135 217 -58 27 -167 26 -223 -2z m187 -115 c17 -14 31 -34 31 -45 0 -17 -8 -19 -105 -19 -119 0 -129 8 -76 61 40 40 105 41 150 3z"/>
<path d="M10254 9591 c-18 -11 -35 -24 -38 -30 -12 -18 -23 -12 -30 14 -6 23 -11 25 -66 25 l-60 0 0 -350 0 -350 65 0 65 0 0 130 c0 120 7 150 26 119 12 -20 88 -49 129 -49 22 0 57 5 79 11 51 14 128 91 144 145 15 52 15 145 0 196 -14 48 -76 120 -122 142 -49 23 -152 21 -192 -3z m133 -117 c56 -35 77 -116 47 -179 -25 -53 -67 -77 -127 -72 -57 5 -92 34 -108 88 -38 124 84 229 188 163z"/>
<path d="M11573 9589 c-51 -25 -89 -67 -116 -128 -15 -35 -18 -59 -15 -120 5 -83 21 -122 69 -170 53 -53 86 -66 174 -66 90 0 123 13 179 71 52 53 69 107 65 202 -4 70 -8 86 -34 123 -17 24 -50 57 -74 74 -38 26 -52 30 -124 33 -68 2 -89 -1 -124 -19z m164 -109 c38 -23 50 -43 59 -99 14 -88 -39 -161 -117 -161 -43 0 -98 55 -101 102 -4 88 15 138 60 162 37 20 61 20 99 -4z"/>
<path d="M12860 9594 c-19 -8 -47 -27 -62 -41 l-27 -25 -6 36 -7 36 -59 0 -59 0 0 -245 0 -245 64 0 64 0 4 138 c6 188 26 222 133 222 l45 0 0 70 c0 70 0 70 -27 70 -16 -1 -44 -8 -63 -16z"/>
<path d="M14075 9595 c-16 -7 -41 -25 -54 -39 -28 -30 -41 -26 -41 15 0 29 0 29 -60 29 l-60 0 0 -245 0 -245 65 0 65 0 0 130 c0 149 11 190 59 214 16 9 50 16 76 16 l45 0 0 70 0 70 -32 -1 c-18 0 -46 -7 -63 -14z"/>
<path d="M14375 9591 c-106 -48 -161 -169 -135 -294 14 -70 55 -128 117 -164 41 -24 59 -28 123 -28 58 0 85 6 116 22 108 58 158 186 120 314 -18 64 -68 122 -130 150 -55 25 -157 25 -211 0z m150 -107 c81 -38 89 -195 13 -248 -31 -22 -90 -20 -121 4 -71 56 -57 206 24 247 32 17 44 16 84 -3z"/>
<path d="M15223 9585 c-54 -27 -90 -66 -114 -125 -19 -47 -17 -174 4 -222 70 -157 310 -185 418 -48 15 19 29 44 31 55 3 18 -3 20 -56 23 -53 3 -62 0 -88 -25 -24 -23 -38 -28 -78 -28 -55 0 -91 26 -109 76 l-10 29 180 0 179 0 0 54 c0 99 -38 165 -119 209 -68 38 -165 38 -238 2z m190 -110 c13 -14 27 -34 30 -45 5 -19 0 -20 -104 -20 -60 0 -109 3 -109 8 1 4 7 18 14 31 31 55 125 70 169 26z"/>
<path d="M15815 9591 c-89 -42 -138 -124 -138 -236 -1 -160 115 -266 275 -252 97 9 189 78 204 155 l7 32 -71 0 c-62 0 -71 -2 -77 -20 -15 -48 -101 -68 -151 -35 -49 32 -68 122 -40 188 21 51 52 72 103 72 38 0 49 -5 74 -32 27 -31 33 -33 94 -33 78 0 82 10 35 84 -41 65 -108 96 -205 96 -47 0 -83 -7 -110 -19z"/>
<path d="M16955 9590 c-51 -26 -76 -61 -82 -115 -10 -82 40 -127 176 -159 78 -18 101 -32 101 -60 0 -33 -26 -51 -72 -51 -32 0 -46 7 -69 33 -27 30 -33 32 -93 32 l-65 0 10 -32 c22 -78 93 -127 192 -135 84 -7 143 11 188 55 45 46 58 102 35 156 -19 45 -60 70 -150 92 -91 22 -126 39 -126 64 0 44 86 55 126 15 21 -21 34 -25 86 -25 l60 0 -6 28 c-10 40 -38 74 -82 99 -53 31 -171 32 -229 3z"/>
<path d="M12040 9423 c0 -193 9 -233 61 -279 69 -61 189 -57 259 9 27 26 30 27 30 9 0 -44 10 -52 66 -52 l54 0 0 245 0 245 -65 0 -65 0 0 -146 c0 -195 -20 -237 -112 -236 -81 1 -98 43 -98 237 l0 145 -65 0 -65 0 0 -177z"/>
<path d="M14840 9326 c0 -151 -3 -282 -6 -290 -4 -9 -23 -19 -45 -22 l-39 -7 0 -54 0 -55 70 4 c50 3 77 9 97 24 56 41 58 53 61 377 l4 297 -71 0 -71 0 0 -274z"/>
<path d="M18439 8549 c-31 -11 -52 -53 -43 -83 12 -40 35 -56 80 -56 34 0 47 5 63 26 12 15 21 33 21 40 0 29 -25 64 -53 74 -34 12 -33 12 -68 -1z"/>
<path d="M11820 8419 c0 -123 -1 -129 -17 -113 -48 48 -166 59 -240 23 -82 -40 -127 -125 -126 -241 1 -145 96 -246 232 -248 48 0 129 33 138 56 9 23 21 16 25 -13 3 -27 6 -28 66 -31 l62 -3 0 351 0 350 -70 0 -70 0 0 -131z m-53 -205 c32 -20 56 -72 56 -120 0 -132 -157 -184 -230 -75 -81 119 55 271 174 195z"/>
<path d="M17580 8200 l0 -350 65 0 65 0 0 140 c0 155 9 192 55 228 37 29 86 28 122 -2 l28 -24 3 -171 3 -171 70 0 69 0 0 138 c0 284 -41 362 -189 362 -61 0 -97 -13 -133 -48 l-28 -26 0 137 0 137 -65 0 -65 0 0 -350z"/>
<path d="M4538 8264 c-3 -266 -3 -266 -27 -285 -13 -10 -36 -19 -53 -19 -36 0 -78 40 -78 75 0 24 -2 25 -71 25 l-71 0 7 -42 c11 -65 44 -117 95 -146 39 -23 56 -27 126 -27 72 0 85 3 123 28 76 51 81 70 81 385 l0 272 -65 0 -64 0 -3 -266z"/>
<path d="M8530 8190 l0 -340 65 0 65 0 0 145 0 145 126 0 125 0 -3 53 -3 52 -122 3 -123 3 0 84 0 85 155 0 155 0 0 55 0 55 -220 0 -220 0 0 -340z"/>
<path d="M11190 8190 l0 -340 65 0 65 0 0 340 0 340 -65 0 -65 0 0 -340z"/>
<path d="M14690 8190 l0 -340 215 0 215 0 0 55 0 55 -150 0 -150 0 0 285 0 285 -65 0 -65 0 0 -340z"/>
<path d="M13525 8468 c-2 -7 -6 -39 -10 -70 l-6 -58 -40 0 -39 0 0 -55 0 -55 39 0 39 0 4 -137 c2 -97 7 -147 18 -167 24 -47 72 -69 161 -74 l79 -5 0 61 0 61 -52 3 c-69 4 -78 21 -78 156 l0 102 65 0 65 0 0 55 0 54 -62 3 -63 3 -3 68 -3 67 -55 0 c-35 0 -56 -5 -59 -12z"/>
<path d="M4923 8329 c-51 -25 -89 -67 -116 -128 -15 -35 -18 -59 -15 -120 5 -83 21 -122 69 -170 53 -53 86 -66 174 -66 90 0 123 13 179 71 52 53 69 107 65 202 -4 70 -8 86 -34 123 -17 24 -50 57 -74 74 -38 26 -52 30 -124 33 -68 2 -89 -1 -124 -19z m164 -109 c38 -23 50 -43 59 -99 14 -88 -39 -161 -117 -161 -43 0 -98 55 -101 102 -4 88 15 138 60 162 37 20 61 20 99 -4z"/>
<path d="M6210 8334 c-19 -8 -47 -27 -62 -41 l-27 -25 -6 36 -7 36 -59 0 -59 0 0 -245 0 -245 64 0 64 0 4 138 c6 188 26 222 133 222 l45 0 0 70 c0 70 0 70 -27 70 -16 -1 -44 -8 -63 -16z"/>
<path d="M6579 8330 c-19 -10 -42 -26 -50 -36 -13 -16 -14 -15 -19 12 -5 28 -8 29 -63 32 l-57 3 0 -246 0 -245 65 0 65 0 0 154 c0 143 2 155 23 187 44 66 144 62 173 -7 10 -23 14 -79 14 -184 l0 -150 66 0 65 0 -3 188 c-3 217 -12 246 -83 287 -53 32 -142 34 -196 5z"/>
<path d="M7103 8325 c-54 -27 -90 -66 -114 -125 -19 -47 -17 -174 4 -222 70 -157 310 -185 418 -48 15 19 29 44 31 55 3 18 -3 20 -56 23 -53 3 -62 0 -88 -25 -24 -23 -38 -28 -78 -28 -55 0 -91 26 -109 76 l-10 29 180 0 179 0 0 54 c0 144 -93 236 -240 236 -51 0 -78 -6 -117 -25z m190 -110 c13 -14 27 -34 30 -45 5 -19 0 -20 -104 -20 -60 0 -109 3 -109 8 1 4 7 18 14 31 31 55 125 70 169 26z"/>
<path d="M9272 8329 c-23 -12 -47 -30 -53 -40 -15 -30 -29 -22 -29 16 l0 35 -60 0 -60 0 0 -245 0 -245 65 0 65 0 0 138 c0 119 3 141 20 170 23 38 54 52 116 52 l44 0 0 70 0 70 -32 0 c-18 0 -52 -10 -76 -21z"/>
<path d="M9573 8329 c-51 -25 -89 -67 -116 -128 -15 -35 -18 -59 -15 -120 5 -83 21 -122 69 -170 53 -53 86 -66 174 -66 90 0 123 13 179 71 52 53 69 107 65 202 -4 70 -8 86 -34 123 -17 24 -50 57 -74 74 -38 26 -52 30 -124 33 -68 2 -89 -1 -124 -19z m164 -109 c38 -23 50 -43 59 -99 14 -88 -39 -161 -117 -161 -43 0 -98 55 -101 102 -4 88 15 138 60 162 37 20 61 20 99 -4z"/>
<path d="M10228 8330 c-20 -11 -40 -25 -44 -32 -6 -9 -10 -5 -14 12 -5 23 -11 25 -63 28 l-57 3 0 -246 0 -245 65 0 65 0 0 150 c0 114 4 158 15 180 32 62 93 78 142 36 l28 -24 5 -169 5 -168 67 -3 67 -3 3 166 3 167 33 29 c43 39 84 39 123 0 l29 -29 0 -166 0 -166 70 0 70 0 0 143 c0 79 -5 170 -11 203 -19 106 -77 154 -183 154 -66 0 -102 -12 -138 -48 l-28 -26 -27 26 c-16 14 -38 31 -50 37 -35 18 -133 13 -175 -9z"/>
<path d="M12202 8329 c-118 -59 -168 -225 -106 -355 78 -164 327 -180 424 -27 16 25 27 50 24 54 -3 5 -34 9 -70 9 -49 0 -66 -4 -71 -15 -7 -21 -56 -45 -88 -45 -39 0 -82 29 -100 66 -8 18 -15 35 -15 38 0 3 81 6 180 6 l180 0 0 54 c0 97 -51 179 -135 217 -58 27 -167 26 -223 -2z m187 -115 c17 -14 31 -34 31 -45 0 -17 -8 -19 -105 -19 -119 0 -129 8 -76 61 40 40 105 41 150 3z"/>
<path d="M12797 8340 c-63 -19 -127 -89 -127 -140 0 -18 6 -20 65 -20 37 0 65 4 65 10 0 24 41 50 79 50 53 0 69 -8 86 -41 28 -54 25 -56 -92 -60 -117 -5 -157 -19 -196 -70 -28 -39 -33 -106 -9 -149 26 -47 91 -80 155 -80 54 0 134 32 144 56 9 23 21 16 28 -16 6 -29 9 -30 61 -30 l54 0 0 179 c0 191 -7 226 -52 268 -38 36 -92 53 -165 52 -37 0 -81 -5 -96 -9z m168 -307 c-11 -48 -53 -83 -99 -83 -64 0 -98 47 -58 82 25 22 40 26 106 27 l58 1 -7 -27z"/>
<path d="M13995 8331 c-106 -48 -161 -169 -135 -294 14 -70 55 -128 117 -164 41 -24 59 -28 123 -28 58 0 85 6 116 22 108 58 158 186 120 314 -18 64 -68 122 -130 150 -55 25 -157 25 -211 0z m150 -107 c81 -38 89 -195 13 -248 -31 -22 -90 -20 -121 4 -71 56 -57 206 24 247 32 17 44 16 84 -3z"/>
<path d="M15329 8323 c-39 -20 -60 -39 -76 -68 -37 -66 -33 -75 36 -75 53 0 63 3 89 30 25 24 39 30 76 30 36 0 48 -5 65 -26 12 -15 21 -37 21 -49 0 -22 -4 -23 -102 -27 -157 -5 -220 -46 -221 -145 -1 -89 49 -140 147 -150 62 -6 114 8 156 44 l30 25 6 -32 c7 -31 7 -31 63 -28 l56 3 0 170 c0 190 -4 210 -42 256 -63 74 -202 93 -304 42z m201 -279 c0 -49 -50 -93 -106 -94 -48 0 -67 17 -62 57 4 36 38 53 111 53 45 0 57 -3 57 -16z"/>
<path d="M16585 8332 c-16 -11 -36 -26 -44 -35 -17 -21 -31 -13 -31 19 0 23 -3 24 -60 24 l-60 0 0 -245 0 -245 65 0 65 0 0 128 c0 70 5 145 10 167 19 85 107 122 167 71 l28 -24 5 -169 5 -168 68 -3 67 -3 0 149 c0 82 -5 173 -10 202 -12 63 -50 117 -96 136 -48 20 -142 18 -179 -4z"/>
<path d="M17112 8329 c-52 -26 -105 -86 -120 -138 -21 -68 -15 -161 13 -218 97 -193 396 -171 459 35 7 21 5 22 -63 22 -60 0 -72 -3 -81 -20 -27 -50 -104 -68 -153 -35 -61 39 -72 164 -21 225 45 52 135 50 164 -6 12 -22 19 -24 86 -24 l72 0 -11 38 c-16 49 -82 114 -133 130 -66 19 -162 15 -212 -9z"/>
<path d="M18865 8332 c-16 -11 -36 -26 -44 -35 -20 -25 -31 -21 -31 13 l0 30 -60 0 -60 0 0 -245 0 -245 65 0 65 0 0 128 c0 70 5 145 10 167 19 85 107 122 167 71 l28 -24 5 -169 5 -168 68 -3 67 -3 0 149 c0 82 -5 173 -10 202 -12 63 -50 117 -96 136 -48 20 -142 18 -179 -4z"/>
<path d="M5390 8163 c0 -193 9 -233 61 -279 69 -61 189 -57 259 9 27 26 30 27 30 9 0 -44 10 -52 66 -52 l54 0 0 245 0 245 -65 0 -65 0 0 -146 c0 -195 -20 -237 -112 -236 -81 1 -98 43 -98 237 l0 145 -65 0 -65 0 0 -177z"/>
<path d="M7500 8337 c0 -18 192 -422 204 -429 13 -7 7 -25 -36 -121 -72 -160 -73 -147 10 -147 l69 0 118 273 c65 149 133 307 151 350 l33 77 -73 0 -73 0 -59 -149 c-32 -82 -61 -148 -64 -146 -3 2 -35 69 -70 149 l-64 146 -73 0 c-40 0 -73 -1 -73 -3z"/>
<path d="M15790 8179 c0 -184 10 -234 54 -283 68 -75 201 -75 270 -1 l25 27 7 -36 6 -36 59 0 59 0 0 245 0 245 -70 0 -70 0 0 -150 c0 -118 -3 -158 -16 -181 -32 -62 -127 -71 -168 -16 -19 26 -21 45 -25 188 l-3 159 -64 0 -64 0 0 -161z"/>
<path d="M18410 8095 l0 -245 65 0 65 0 0 245 0 245 -65 0 -65 0 0 -245z"/>
<path d="M8059 7981 c-17 -13 -23 -29 -23 -56 0 -47 31 -75 84 -75 47 0 74 28 74 77 0 44 -32 73 -79 73 -18 0 -43 -8 -56 -19z"/>
<path d="M12875 7293 c-34 -8 -55 -34 -55 -70 0 -46 29 -73 80 -73 51 0 80 27 80 73 0 50 -49 82 -105 70z"/>
<path d="M11760 7159 c0 -123 -1 -129 -17 -113 -48 48 -166 59 -240 23 -82 -40 -127 -125 -126 -241 1 -145 96 -246 232 -248 48 0 129 33 138 56 9 23 21 16 25 -13 3 -27 6 -28 66 -31 l62 -3 0 351 0 350 -70 0 -70 0 0 -131z m-53 -205 c32 -20 56 -72 56 -120 0 -132 -157 -184 -230 -75 -81 119 55 271 174 195z"/>
<path d="M8660 6930 l0 -340 65 0 64 0 3 133 3 132 45 0 c51 0 45 7 134 -182 l38 -83 74 0 c41 0 74 3 74 8 0 4 -29 67 -65 141 -36 74 -64 135 -63 136 2 1 19 11 38 23 53 31 84 93 84 167 -1 65 -16 104 -59 147 -46 46 -101 58 -277 58 l-158 0 0 -340z m309 216 c56 -30 68 -110 23 -156 -30 -29 -102 -46 -167 -38 l-30 3 -3 89 c-2 49 -1 95 2 103 7 18 138 18 175 -1z"/>
<path d="M12212 7218 l3 -53 98 -3 97 -3 0 -284 0 -285 65 0 65 0 0 285 0 285 100 0 100 0 0 55 0 55 -266 0 -265 0 3 -52z"/>
<path d="M14607 7133 c2 -76 6 -180 9 -230 l6 -93 53 0 53 0 6 103 c3 56 7 159 9 230 l4 127 -72 0 -72 0 4 -137z"/>
<path d="M9365 7071 c-90 -41 -138 -123 -138 -236 0 -145 78 -235 217 -251 73 -9 134 9 186 53 38 33 70 79 70 103 0 6 -25 10 -61 10 -54 0 -65 -4 -97 -31 -31 -28 -40 -31 -81 -26 -34 4 -52 12 -73 36 -15 17 -28 40 -28 51 0 19 9 20 178 22 l177 3 -3 58 c-4 99 -47 168 -127 206 -58 27 -163 28 -220 2z m171 -109 c20 -15 44 -52 44 -66 0 -3 -49 -6 -110 -6 -73 0 -110 4 -110 11 0 6 15 26 34 45 28 28 41 34 78 34 26 0 52 -7 64 -18z"/>
<path d="M9942 7069 c-52 -26 -105 -86 -120 -138 -21 -68 -15 -161 13 -218 97 -193 396 -171 459 35 7 21 5 22 -63 22 -60 0 -72 -3 -81 -20 -27 -50 -104 -68 -153 -35 -61 39 -72 164 -21 225 45 52 135 50 164 -6 12 -22 19 -24 86 -24 l72 0 -11 38 c-16 49 -82 114 -133 130 -66 19 -162 15 -212 -9z"/>
<path d="M10532 7069 c-52 -26 -109 -90 -123 -140 -6 -20 -10 -70 -8 -111 4 -62 9 -83 34 -124 85 -136 280 -154 388 -34 54 60 72 116 64 206 -6 79 -41 141 -105 188 -39 28 -53 31 -125 34 -68 2 -89 -1 -125 -19z m158 -104 c16 -9 37 -29 45 -46 18 -34 22 -111 7 -150 -24 -61 -104 -88 -157 -53 -55 36 -70 156 -27 213 36 49 82 62 132 36z"/>
<path d="M11220 7074 c-19 -8 -47 -27 -62 -41 l-27 -25 -6 36 -7 36 -59 0 -59 0 0 -245 0 -245 64 0 64 0 4 138 c6 188 26 222 133 222 l45 0 0 70 c0 70 0 70 -27 70 -16 -1 -44 -8 -63 -16z"/>
<path d="M13278 7070 c-20 -11 -40 -25 -44 -32 -6 -9 -10 -5 -14 12 -5 23 -11 25 -63 28 l-57 3 0 -246 0 -245 65 0 65 0 0 150 c0 114 4 158 15 180 32 62 93 78 142 36 l28 -24 5 -169 5 -168 67 -3 67 -3 3 166 3 167 33 29 c43 39 84 39 123 0 l29 -29 0 -166 0 -166 70 0 70 0 0 143 c0 79 -5 170 -11 203 -19 106 -77 154 -183 154 -66 0 -102 -12 -138 -48 l-28 -26 -27 26 c-16 14 -38 31 -50 37 -35 18 -133 13 -175 -9z"/>
<path d="M14123 7065 c-54 -27 -90 -66 -114 -125 -19 -47 -17 -174 4 -222 70 -157 310 -185 418 -48 15 19 29 44 31 55 3 18 -3 20 -56 23 -53 3 -62 0 -88 -25 -24 -23 -38 -28 -78 -28 -55 0 -91 26 -109 76 l-10 29 180 0 179 0 0 54 c0 99 -38 165 -119 209 -68 38 -165 38 -238 2z m190 -110 c13 -14 27 -34 30 -45 5 -19 0 -20 -104 -20 -60 0 -109 3 -109 8 1 4 7 18 14 31 31 55 125 70 169 26z"/>
<path d="M12830 6835 l0 -245 70 0 70 0 0 245 0 245 -70 0 -70 0 0 -245z"/>
<path d="M14619 6721 c-17 -13 -23 -29 -23 -56 0 -46 31 -75 79 -75 48 0 79 29 79 75 0 46 -31 75 -79 75 -18 0 -43 -8 -56 -19z"/>
<path d="M8645 5600 c-4 -7 -3 -16 3 -22 14 -14 45 -2 40 15 -6 16 -34 21 -43 7z"/>
<path d="M8900 5465 c0 -122 2 -145 15 -145 12 0 15 14 15 64 0 69 24 116 59 116 36 0 51 -32 51 -108 0 -66 2 -72 21 -72 20 0 21 4 18 86 -4 76 -7 88 -28 105 -28 23 -69 24 -99 3 -22 -15 -22 -15 -22 40 0 43 -3 56 -15 56 -13 0 -15 -23 -15 -145z"/>
<path d="M10410 5465 c0 -138 1 -145 20 -145 19 0 20 7 20 145 0 138 -1 145 -20 145 -19 0 -20 -7 -20 -145z"/>
<path d="M12470 5465 c0 -118 3 -145 14 -145 8 0 16 6 19 13 4 10 7 10 18 0 7 -7 32 -13 55 -13 35 0 47 5 68 31 38 45 37 110 -3 150 -34 33 -83 39 -119 13 -22 -15 -22 -15 -22 40 0 43 -3 56 -15 56 -13 0 -15 -23 -15 -145z m140 13 c44 -48 19 -128 -40 -128 -46 0 -77 51 -59 98 20 54 64 67 99 30z"/>
<path d="M12945 5600 c-9 -15 4 -30 26 -30 12 0 19 7 19 20 0 21 -33 29 -45 10z"/>
<path d="M13040 5465 c0 -138 1 -145 20 -145 19 0 20 7 20 145 0 138 -1 145 -20 145 -19 0 -20 -7 -20 -145z"/>
<path d="M13290 5559 c0 -45 -2 -50 -17 -44 -54 22 -91 17 -122 -16 -41 -44 -31 -142 17 -168 27 -14 78 -14 105 0 16 9 22 9 25 0 2 -6 10 -11 18 -11 11 0 14 27 14 145 0 138 -1 145 -20 145 -17 0 -20 -7 -20 -51z m-26 -80 c49 -38 22 -129 -39 -129 -29 0 -65 43 -65 77 0 26 41 73 63 73 8 0 26 -9 41 -21z"/>
<path d="M8245 5578 c3 -13 21 -75 38 -138 27 -96 36 -116 53 -118 18 -3 24 9 49 95 15 54 31 104 35 111 3 7 20 -36 36 -95 26 -91 34 -109 52 -111 22 -3 24 2 81 206 l20 73 -22 -3 c-18 -3 -25 -17 -46 -105 -14 -57 -28 -103 -32 -103 -3 0 -19 47 -34 105 -25 93 -31 105 -50 105 -20 0 -26 -12 -50 -97 -15 -54 -30 -104 -34 -111 -4 -7 -15 21 -25 64 -32 136 -35 144 -57 144 -15 0 -18 -5 -14 -22z"/>
<path d="M9240 5460 l0 -140 80 0 c64 0 80 3 80 15 0 12 -14 15 -65 15 l-65 0 0 125 c0 104 -2 125 -15 125 -13 0 -15 -22 -15 -140z"/>
<path d="M8760 5551 c0 -10 -9 -21 -20 -24 -11 -3 -20 -10 -20 -17 0 -7 9 -14 20 -17 18 -5 20 -14 20 -74 0 -59 3 -70 22 -83 12 -9 33 -16 45 -16 30 0 30 28 1 32 -21 3 -23 9 -26 71 -3 66 -3 67 23 67 18 0 25 5 25 20 0 15 -7 20 -25 20 -18 0 -25 5 -25 20 0 13 -7 20 -20 20 -13 0 -20 -7 -20 -19z"/>
<path d="M15080 5551 c0 -10 -9 -21 -20 -24 -11 -3 -20 -10 -20 -17 0 -7 9 -14 20 -17 18 -5 20 -14 20 -74 0 -59 3 -70 22 -83 12 -9 33 -16 45 -16 30 0 30 28 1 32 -21 3 -23 9 -26 71 -3 66 -3 67 23 67 18 0 25 5 25 20 0 15 -7 20 -25 20 -18 0 -25 5 -25 20 0 13 -7 20 -20 20 -13 0 -20 -7 -20 -19z"/>
<path d="M8650 5425 c0 -87 3 -105 15 -105 12 0 15 18 15 105 0 87 -3 105 -15 105 -12 0 -15 -18 -15 -105z"/>
<path d="M9480 5517 c-57 -29 -68 -120 -21 -168 59 -58 155 -28 168 53 14 92 -67 155 -147 115z m88 -37 c43 -40 19 -130 -35 -130 -39 0 -63 27 -63 72 0 67 54 99 98 58z"/>
<path d="M9699 5501 c-24 -25 -29 -38 -29 -79 0 -66 33 -102 94 -102 53 0 83 21 95 66 14 50 4 90 -31 119 -42 35 -91 34 -129 -4z m106 -26 c27 -26 31 -54 14 -88 -25 -46 -67 -50 -99 -10 -26 33 -21 79 11 106 29 23 45 22 74 -8z"/>
<path d="M9917 5523 c-4 -3 -7 -71 -7 -150 0 -132 1 -144 18 -141 13 2 18 16 22 58 3 33 8 50 13 43 5 -7 28 -13 53 -13 65 0 94 31 94 100 0 44 -5 56 -29 81 -34 33 -78 38 -116 13 -23 -15 -25 -15 -25 0 0 16 -12 21 -23 9z m138 -48 c14 -13 25 -35 25 -48 0 -34 -36 -77 -66 -77 -58 0 -85 81 -42 127 28 30 53 29 83 -2z"/>
<path d="M10167 5523 c-4 -3 -7 -71 -7 -150 0 -136 1 -143 20 -143 18 0 20 7 20 55 0 52 1 55 19 45 61 -32 133 4 146 73 17 87 -74 159 -142 112 -19 -13 -22 -13 -27 0 -6 16 -18 19 -29 8z m138 -48 c15 -14 25 -36 25 -51 0 -34 -36 -74 -66 -74 -31 0 -64 37 -64 72 0 32 39 78 65 78 9 0 27 -11 40 -25z"/>
<path d="M10545 5518 c-44 -25 -60 -74 -44 -132 12 -44 42 -66 92 -66 28 0 45 7 65 27 24 24 25 28 9 31 -10 2 -26 -3 -36 -12 -25 -23 -67 -20 -85 6 -9 12 -16 26 -16 30 0 5 33 8 74 8 41 0 78 5 81 10 10 17 -15 79 -38 95 -25 18 -74 19 -102 3z m85 -38 c32 -32 24 -40 -40 -40 -33 0 -60 4 -60 9 0 13 50 51 66 51 8 0 23 -9 34 -20z"/>
<path d="M10890 5521 c0 -5 18 -49 40 -97 l41 -88 -17 -40 c-9 -23 -18 -47 -21 -53 -3 -8 3 -13 14 -13 15 0 33 30 81 141 34 77 62 144 62 150 0 5 -7 9 -15 9 -9 0 -28 -28 -46 -70 -18 -38 -35 -70 -39 -70 -4 0 -18 26 -30 58 -13 31 -28 63 -33 70 -11 14 -37 16 -37 3z"/>
<path d="M11142 5505 c-35 -29 -45 -69 -31 -119 12 -45 42 -66 94 -66 64 1 95 37 95 110 0 86 -92 130 -158 75z m97 -22 c32 -27 37 -73 11 -106 -38 -48 -96 -30 -106 35 -5 30 -2 41 19 62 31 31 47 32 76 9z"/>
<path d="M11350 5442 c0 -73 3 -92 18 -105 21 -19 73 -22 103 -7 13 7 19 7 19 0 0 -5 9 -10 20 -10 20 0 21 5 18 103 -2 83 -6 102 -18 102 -11 0 -16 -17 -21 -72 -6 -78 -19 -103 -55 -103 -41 0 -54 25 -54 106 0 59 -3 74 -15 74 -12 0 -15 -16 -15 -88z"/>
<path d="M11709 5501 c-23 -23 -29 -38 -29 -71 0 -73 31 -109 95 -110 46 0 80 19 88 50 7 27 -23 27 -46 0 -9 -11 -27 -20 -40 -20 -57 0 -84 94 -38 131 30 24 49 24 77 -2 12 -11 30 -19 41 -17 16 3 14 8 -14 36 -43 43 -92 44 -134 3z"/>
<path d="M11960 5523 c-45 -16 -67 -63 -30 -63 11 0 20 5 20 10 0 6 11 15 24 21 30 14 66 -3 66 -31 0 -17 -7 -20 -48 -20 -61 0 -85 -17 -85 -60 0 -20 7 -38 18 -46 24 -17 87 -18 104 -1 11 10 14 10 18 0 3 -7 11 -13 19 -13 11 0 14 18 14 80 0 73 -3 83 -25 105 -23 24 -60 31 -95 18z m80 -120 c0 -42 -64 -70 -90 -38 -14 17 -6 33 24 45 36 15 66 12 66 -7z"/>
<path d="M12137 5523 c-4 -3 -7 -51 -7 -105 0 -91 1 -98 20 -98 18 0 20 7 20 74 0 66 3 77 22 90 53 37 78 8 78 -90 0 -67 2 -74 20 -74 18 0 20 7 20 80 0 73 -3 83 -25 105 -28 29 -70 32 -103 9 -20 -14 -22 -14 -22 0 0 17 -12 21 -23 9z"/>
<path d="M12714 5515 c-4 -8 -4 -46 -2 -84 4 -84 23 -111 78 -111 20 0 42 6 49 13 11 10 14 10 18 0 3 -7 11 -13 19 -13 11 0 14 21 14 105 0 87 -3 105 -15 105 -11 0 -15 -13 -15 -54 0 -87 -20 -126 -67 -126 -32 0 -43 29 -43 109 0 57 -3 71 -15 71 -9 0 -18 -7 -21 -15z"/>
<path d="M12957 5524 c-4 -4 -7 -52 -7 -106 0 -92 1 -98 20 -98 20 0 21 5 18 102 -3 94 -11 121 -31 102z"/>
<path d="M13477 5524 c-6 -6 13 -54 56 -144 l23 -48 -22 -44 c-28 -53 -29 -58 -5 -58 14 0 33 32 80 138 34 75 63 142 63 147 1 6 -5 11 -14 13 -11 2 -25 -20 -49 -73 -18 -41 -36 -72 -39 -68 -4 5 -20 38 -35 76 -25 61 -41 78 -58 61z"/>
<path d="M13722 5505 c-35 -29 -45 -69 -31 -119 12 -45 42 -66 94 -66 64 1 95 37 95 110 0 86 -92 130 -158 75z m97 -22 c32 -27 37 -73 11 -106 -38 -48 -96 -30 -106 35 -5 30 -2 41 19 62 31 31 47 32 76 9z"/>
<path d="M13930 5442 c0 -73 3 -92 18 -105 21 -19 73 -22 103 -7 13 7 19 7 19 0 0 -5 9 -10 20 -10 20 0 21 5 18 103 -2 83 -6 102 -18 102 -11 0 -16 -17 -21 -72 -6 -78 -19 -103 -55 -103 -41 0 -54 25 -54 106 0 59 -3 74 -15 74 -12 0 -15 -16 -15 -88z"/>
<path d="M14167 5523 c-4 -3 -7 -51 -7 -105 0 -91 1 -98 20 -98 18 0 20 7 20 69 0 74 14 101 51 101 12 0 19 7 19 20 0 24 -11 25 -50 5 -27 -14 -30 -14 -30 0 0 16 -12 20 -23 8z"/>
<path d="M14417 5523 c-4 -3 -7 -51 -7 -105 0 -91 1 -98 20 -98 18 0 20 7 20 64 0 49 5 69 21 90 46 59 89 18 89 -86 0 -54 3 -68 15 -68 12 0 15 16 15 85 0 72 -3 88 -20 105 -24 24 -67 26 -97 5 -19 -13 -22 -13 -27 0 -6 16 -18 19 -29 8z"/>
<path d="M14685 5518 c-44 -25 -60 -74 -44 -132 12 -44 42 -66 92 -66 28 0 45 7 65 27 24 24 25 28 9 31 -10 2 -26 -3 -36 -12 -25 -23 -67 -20 -85 6 -9 12 -16 26 -16 30 0 5 33 8 74 8 41 0 78 5 81 10 10 17 -15 79 -38 95 -25 18 -74 19 -102 3z m85 -38 c32 -32 24 -40 -40 -40 -33 0 -60 4 -60 9 0 13 50 51 66 51 8 0 23 -9 34 -20z"/>
<path d="M14850 5519 c0 -6 13 -30 29 -53 l30 -43 -35 -51 c-31 -47 -33 -52 -14 -52 12 0 30 15 47 41 l26 40 26 -40 c18 -28 33 -41 49 -41 l23 0 -29 43 c-16 23 -31 47 -35 53 -4 6 7 29 23 50 16 21 30 45 30 52 0 26 -31 10 -56 -28 -15 -22 -28 -40 -30 -40 -2 0 -15 18 -29 40 -23 37 -55 54 -55 29z"/>
<path d="M10713 5315 c-13 -59 8 -62 31 -5 20 50 20 50 -2 50 -14 0 -21 -12 -29 -45z"/>
<path d="M10190 4875 l0 -54 -28 16 c-42 24 -97 11 -123 -30 -28 -45 -21 -113 16 -144 28 -25 82 -31 116 -13 13 7 19 7 19 0 0 -5 9 -10 20 -10 19 0 20 7 20 145 0 138 -1 145 -20 145 -18 0 -20 -7 -20 -55z m-25 -80 c30 -30 32 -64 4 -99 -25 -32 -61 -34 -89 -4 -29 32 -27 81 6 107 34 27 50 26 79 -4z"/>
<path d="M10635 4920 c-9 -15 4 -30 26 -30 12 0 19 7 19 20 0 21 -33 29 -45 10z"/>
<path d="M11990 4785 c0 -138 1 -145 20 -145 19 0 20 7 20 145 0 138 -1 145 -20 145 -19 0 -20 -7 -20 -145z"/>
<path d="M12190 4910 c0 -13 7 -20 20 -20 13 0 20 7 20 20 0 13 -7 20 -20 20 -13 0 -20 -7 -20 -20z"/>
<path d="M12972 4918 c-7 -7 -12 -25 -12 -40 0 -18 -5 -28 -15 -28 -8 0 -15 -9 -15 -20 0 -11 7 -20 15 -20 12 0 15 -16 15 -85 0 -69 3 -85 15 -85 12 0 15 16 15 85 0 84 0 85 25 85 18 0 25 5 25 20 0 15 -7 20 -25 20 -14 0 -25 4 -25 9 0 23 14 41 31 41 10 0 19 7 19 15 0 18 -50 21 -68 3z"/>
<path d="M13930 4785 c0 -138 1 -145 20 -145 19 0 20 7 20 145 0 138 -1 145 -20 145 -19 0 -20 -7 -20 -145z"/>
<path d="M14020 4910 c0 -16 5 -21 23 -18 12 2 22 10 22 18 0 8 -10 16 -22 18 -18 3 -23 -2 -23 -18z"/>
<path d="M14350 4785 c0 -122 2 -145 15 -145 11 0 15 12 15 45 0 25 3 45 6 45 4 0 24 -20 46 -45 22 -25 48 -45 59 -45 27 0 24 7 -27 62 l-46 50 41 42 c22 23 41 45 41 49 0 20 -39 2 -77 -35 l-43 -42 0 82 c0 66 -3 82 -15 82 -13 0 -15 -23 -15 -145z"/>
<path d="M8660 4780 c0 -116 3 -140 15 -140 10 0 15 15 17 58 3 53 5 57 30 60 24 3 29 -3 54 -57 22 -50 31 -61 51 -61 l23 0 -30 60 c-29 57 -29 60 -11 69 24 13 40 60 34 95 -8 41 -38 56 -115 56 l-68 0 0 -140z m134 94 c39 -39 7 -84 -60 -84 l-44 0 0 50 0 50 44 0 c27 0 51 -6 60 -16z"/>
<path d="M9570 4871 c0 -10 -9 -21 -20 -24 -11 -3 -20 -10 -20 -17 0 -7 9 -14 20 -17 18 -5 20 -14 20 -74 0 -59 3 -70 22 -83 12 -9 33 -16 45 -16 30 0 30 28 1 32 -21 3 -23 9 -26 71 -3 66 -3 67 23 67 18 0 25 5 25 20 0 15 -7 20 -25 20 -18 0 -25 5 -25 20 0 13 -7 20 -20 20 -13 0 -20 -7 -20 -19z"/>
<path d="M8925 4838 c-44 -25 -60 -74 -44 -132 12 -44 42 -66 92 -66 28 0 45 7 65 27 24 24 25 28 9 31 -10 2 -26 -3 -36 -12 -25 -23 -67 -20 -85 6 -9 12 -16 26 -16 30 0 5 33 8 74 8 41 0 78 5 81 10 10 17 -15 79 -38 95 -25 18 -74 19 -102 3z m85 -38 c32 -32 24 -40 -40 -40 -33 0 -60 4 -60 9 0 13 50 51 66 51 8 0 23 -9 34 -20z"/>
<path d="M9160 4843 c-24 -9 -50 -35 -50 -50 0 -20 34 -16 48 7 16 25 44 26 66 1 25 -28 12 -41 -40 -41 -71 0 -104 -47 -68 -98 17 -24 70 -30 105 -12 13 7 19 7 19 0 0 -5 9 -10 21 -10 20 0 21 4 18 86 -4 76 -7 88 -28 105 -22 18 -60 23 -91 12z m80 -116 c0 -24 -31 -57 -54 -57 -28 0 -51 24 -43 44 9 23 97 35 97 13z"/>
<path d="M9370 4837 c-32 -16 -50 -52 -50 -100 0 -84 107 -131 165 -72 14 13 25 29 25 35 0 18 -35 11 -48 -10 -16 -25 -63 -26 -85 -2 -38 42 -8 132 43 132 11 0 29 -9 40 -20 24 -24 55 -27 46 -4 -3 9 -6 17 -6 20 0 2 -13 10 -30 19 -35 18 -67 19 -100 2z"/>
<path d="M9860 4843 c-45 -16 -67 -63 -30 -63 11 0 20 5 20 10 0 6 11 15 24 21 30 14 66 -3 66 -31 0 -17 -7 -20 -48 -20 -61 0 -85 -17 -85 -60 0 -20 7 -38 18 -46 24 -17 87 -18 104 -1 11 10 14 10 18 0 3 -7 11 -13 19 -13 11 0 14 18 14 80 0 73 -3 83 -25 105 -23 24 -60 31 -95 18z m80 -120 c0 -42 -64 -70 -90 -38 -14 17 -6 33 24 45 36 15 66 12 66 -7z"/>
<path d="M10287 4843 c-4 -3 -7 -51 -7 -105 0 -91 1 -98 20 -98 18 0 20 7 20 70 0 57 4 74 21 91 44 44 79 1 79 -98 0 -47 4 -63 14 -63 10 0 15 19 18 69 5 94 41 136 82 95 12 -11 16 -36 16 -90 0 -67 2 -74 20 -74 18 0 20 7 20 80 0 73 -3 83 -25 105 -28 29 -70 32 -103 9 -20 -14 -24 -14 -38 0 -18 18 -56 21 -84 6 -13 -7 -21 -7 -25 0 -7 12 -19 13 -28 3z"/>
<path d="M10647 4844 c-4 -4 -7 -52 -7 -106 0 -92 1 -98 20 -98 20 0 21 5 18 102 -3 94 -11 121 -31 102z"/>
<path d="M10737 4843 c-4 -3 -7 -51 -7 -105 0 -91 1 -98 20 -98 18 0 20 7 20 64 0 49 5 69 21 90 46 59 89 18 89 -86 0 -54 3 -68 15 -68 12 0 15 16 15 85 0 72 -3 88 -20 105 -24 24 -67 26 -97 5 -19 -13 -22 -13 -27 0 -6 16 -18 19 -29 8z"/>
<path d="M11077 4843 c-4 -3 -7 -71 -7 -150 0 -132 1 -144 18 -141 13 2 18 16 22 58 3 33 8 50 13 43 5 -7 28 -13 53 -13 65 0 94 31 94 100 0 44 -5 56 -29 81 -33 33 -67 37 -111 14 -27 -14 -30 -14 -30 0 0 16 -12 20 -23 8z m138 -48 c14 -13 25 -35 25 -48 0 -34 -36 -77 -66 -77 -58 0 -85 81 -42 127 28 30 53 29 83 -2z"/>
<path d="M11370 4843 c-24 -9 -50 -35 -50 -50 0 -20 34 -16 48 7 16 25 44 26 66 1 25 -28 12 -41 -40 -41 -71 0 -104 -47 -68 -98 17 -24 70 -30 105 -12 13 7 19 7 19 0 0 -5 9 -10 21 -10 20 0 21 4 18 86 -4 76 -7 88 -28 105 -22 18 -60 23 -91 12z m80 -116 c0 -24 -31 -57 -54 -57 -28 0 -51 24 -43 44 9 23 97 35 97 13z"/>
<path d="M11540 4745 c0 -83 3 -105 14 -105 10 0 15 19 18 69 4 73 24 111 58 111 35 0 50 -33 50 -108 0 -67 2 -72 21 -72 21 0 21 4 17 87 -4 74 -8 89 -27 105 -28 22 -69 23 -99 2 -20 -14 -22 -14 -22 0 0 9 -7 16 -15 16 -12 0 -15 -18 -15 -105z"/>
<path d="M11789 4821 c-40 -40 -41 -105 -3 -150 21 -26 33 -31 68 -31 41 0 86 26 86 50 0 16 -37 11 -44 -5 -8 -21 -59 -19 -79 3 -31 35 -21 42 58 42 l75 0 0 31 c0 45 -47 89 -95 89 -27 0 -44 -8 -66 -29z m103 -18 c33 -30 23 -43 -37 -43 -61 0 -73 16 -33 44 29 20 47 20 70 -1z"/>
<path d="M12197 4844 c-4 -4 -7 -52 -7 -106 0 -92 1 -98 20 -98 20 0 21 5 18 102 -3 94 -11 121 -31 102z"/>
<path d="M12290 4745 c0 -83 3 -105 14 -105 10 0 15 19 18 69 4 73 24 111 58 111 35 0 50 -33 50 -108 0 -67 2 -72 21 -72 21 0 21 4 17 87 -4 74 -8 89 -27 105 -28 22 -69 23 -99 2 -20 -14 -22 -14 -22 0 0 9 -7 16 -15 16 -12 0 -15 -18 -15 -105z"/>
<path d="M12670 4843 c-45 -16 -67 -63 -30 -63 11 0 20 5 20 10 0 6 11 15 24 21 30 14 66 -3 66 -31 0 -17 -7 -20 -48 -20 -61 0 -85 -17 -85 -60 0 -20 7 -38 18 -46 24 -17 87 -18 104 -1 11 10 14 10 18 0 3 -7 11 -13 19 -13 11 0 14 18 14 80 0 73 -3 83 -25 105 -23 24 -60 31 -95 18z m80 -120 c0 -42 -64 -70 -90 -38 -14 17 -6 33 24 45 36 15 66 12 66 -7z"/>
<path d="M13099 4821 c-39 -40 -42 -114 -4 -155 33 -35 101 -37 133 -3 12 13 22 26 22 30 0 13 -38 7 -50 -8 -24 -29 -79 -13 -93 28 -6 15 2 17 75 17 l81 0 -6 38 c-13 80 -101 109 -158 53z m99 -17 c40 -28 28 -44 -32 -44 -65 0 -76 11 -40 39 32 25 43 26 72 5z"/>
<path d="M13280 4840 c0 -6 12 -53 27 -106 24 -83 29 -95 47 -92 17 2 25 18 41 76 11 39 22 72 25 72 3 0 14 -33 25 -72 16 -58 24 -74 41 -76 18 -3 24 9 48 98 16 55 26 103 23 107 -16 16 -34 -11 -51 -78 l-20 -74 -23 78 c-19 61 -28 77 -43 77 -16 0 -24 -15 -42 -76 -24 -84 -25 -84 -53 19 -10 36 -21 57 -30 57 -8 0 -15 -5 -15 -10z"/>
<path d="M13729 4821 c-23 -23 -29 -38 -29 -71 0 -73 31 -109 95 -110 46 0 80 19 88 50 7 27 -23 27 -46 0 -9 -11 -27 -20 -40 -20 -57 0 -84 94 -38 131 30 24 49 24 77 -2 12 -11 30 -19 41 -17 16 3 14 8 -14 36 -43 43 -92 44 -134 3z"/>
<path d="M14027 4843 c-4 -3 -7 -51 -7 -105 0 -91 1 -98 20 -98 19 0 20 7 20 105 0 81 -3 105 -13 105 -8 0 -17 -3 -20 -7z"/>
<path d="M14159 4835 c-56 -30 -64 -129 -14 -172 34 -30 93 -31 129 -2 28 22 35 49 13 49 -8 0 -22 -9 -32 -20 -24 -27 -70 -26 -89 2 -23 33 -20 83 6 108 28 25 52 26 78 0 21 -21 50 -27 50 -10 0 6 -11 22 -25 35 -28 29 -75 32 -116 10z"/>
<path d="M14555 4826 c-24 -24 -25 -44 -3 -72 5 -7 29 -17 54 -23 38 -10 45 -15 42 -34 -4 -31 -51 -36 -75 -8 -20 25 -43 27 -43 6 0 -49 107 -77 143 -37 40 44 12 92 -60 107 -39 8 -49 21 -33 40 16 19 44 19 60 0 16 -19 40 -19 40 -1 0 21 -40 46 -73 46 -16 0 -38 -10 -52 -24z"/>
<path d="M14734 4675 c-7 -18 3 -35 21 -35 18 0 26 25 12 39 -15 15 -27 14 -33 -4z"/>
<path d="M8030 3467 c-49 -25 -50 -35 -48 -429 l3 -367 23 -23 23 -23 2314 0 2314 0 23 23 23 23 0 379 0 379 -23 23 -23 23 -2302 2 c-1834 2 -2307 0 -2327 -10z m494 -277 c-1 -8 -5 -27 -9 -42 -7 -27 -6 -28 29 -28 20 0 36 -5 36 -10 0 -16 -88 -166 -105 -180 -22 -18 -29 9 -16 57 15 52 15 51 -21 55 l-33 3 2 70 c2 38 5 76 8 83 7 20 110 12 109 -8z m554 -56 c12 -14 22 -29 22 -35 0 -15 -50 -10 -67 7 -40 39 -97 -19 -71 -73 15 -31 51 -42 74 -23 21 19 17 30 -12 30 -19 0 -25 5 -22 18 2 13 15 18 51 20 l47 3 0 -61 c0 -59 0 -60 -27 -60 -16 0 -42 -2 -59 -6 -69 -13 -124 53 -110 130 15 80 119 110 174 50z m1372 -69 l0 -105 -25 0 -25 0 0 105 0 105 25 0 25 0 0 -105z m695 80 c0 -22 -31 -33 -47 -17 -17 17 -1 44 24 40 15 -2 23 -10 23 -23z m85 -80 l0 -105 -25 0 -25 0 0 105 0 105 25 0 25 0 0 -105z m570 0 l0 -105 -25 0 -25 0 0 105 0 105 25 0 25 0 0 -105z m-2240 15 l0 -80 40 0 c33 0 40 -3 40 -20 0 -18 -7 -20 -65 -20 l-65 0 0 100 0 100 25 0 c25 0 25 -1 25 -80z m1316 51 c9 -16 9 -32 3 -49 -6 -17 -6 -29 1 -36 15 -15 12 -47 -7 -68 -12 -14 -31 -18 -80 -18 l-63 0 0 100 0 101 67 -3 c60 -3 69 -6 79 -27z m-1506 0 c0 -10 9 -21 20 -24 11 -3 20 -12 20 -21 0 -9 -8 -16 -20 -16 -16 0 -20 -7 -20 -35 0 -28 4 -35 20 -35 13 0 20 -7 20 -20 0 -16 -7 -20 -33 -20 -44 0 -57 15 -57 67 0 24 -4 43 -10 43 -5 0 -10 9 -10 20 0 11 5 20 10 20 6 0 10 9 10 20 0 15 7 20 25 20 18 0 25 -5 25 -19z m2690 -1 c0 -13 7 -20 20 -20 13 0 20 -7 20 -20 0 -13 -7 -20 -20 -20 -16 0 -20 -7 -20 -35 0 -28 4 -35 20 -35 13 0 20 -7 20 -20 0 -16 -7 -20 -35 -20 -40 0 -55 20 -55 74 0 20 -4 36 -10 36 -5 0 -10 9 -10 20 0 11 4 20 9 20 5 0 13 9 16 20 3 11 15 20 26 20 12 0 19 -7 19 -20z m-2800 -40 c11 -11 20 -31 20 -45 0 -23 -3 -25 -51 -25 -30 0 -48 -4 -44 -10 3 -5 25 -7 52 -3 44 6 45 6 34 -16 -12 -22 -48 -41 -77 -41 -27 0 -64 47 -64 81 0 68 83 106 130 59z m530 2 c34 -27 32 -88 -4 -118 -35 -31 -70 -30 -101 1 -31 30 -32 73 -4 109 25 31 75 35 109 8z m177 -4 c33 -31 32 -90 -3 -117 -35 -28 -69 -26 -99 4 -72 71 28 183 102 113z m193 0 c31 -33 27 -91 -7 -118 -19 -15 -36 -20 -55 -16 -26 5 -28 3 -28 -29 0 -31 -3 -35 -25 -35 l-25 0 0 109 0 109 60 1 c49 0 64 -4 80 -21z m190 0 c31 -33 27 -91 -7 -118 -19 -15 -36 -20 -55 -16 -26 5 -28 3 -28 -29 0 -31 -3 -35 -25 -35 l-25 0 0 109 0 109 60 1 c49 0 64 -4 80 -21z m260 2 c11 -11 20 -31 20 -45 0 -23 -3 -25 -51 -25 -30 0 -48 -4 -44 -10 3 -5 25 -7 52 -3 44 6 45 6 34 -16 -12 -22 -48 -41 -77 -41 -27 0 -64 47 -64 81 0 68 83 106 130 59z m439 -6 c29 -37 26 -70 -8 -105 -37 -37 -65 -37 -103 1 -25 26 -29 36 -24 63 13 67 95 92 135 41z m101 -49 c0 -73 -1 -75 -25 -75 -24 0 -25 2 -25 75 0 73 1 75 25 75 24 0 25 -2 25 -75z m237 53 c13 -12 23 -32 23 -45 0 -21 -4 -23 -50 -23 -28 0 -50 -5 -50 -10 0 -7 18 -8 52 -4 l53 7 -16 -24 c-25 -37 -74 -47 -107 -22 -36 27 -43 92 -13 122 28 28 78 27 108 -1z m153 -3 c0 -17 -7 -25 -22 -27 -20 -3 -23 -10 -26 -50 -3 -46 -5 -48 -33 -48 l-29 0 0 68 c0 38 2 71 6 74 3 3 27 6 55 6 45 0 49 -2 49 -23z m160 -2 c28 -36 26 -78 -6 -110 -20 -20 -32 -24 -55 -19 -28 5 -29 4 -29 -29 0 -31 -3 -35 -25 -35 l-25 0 0 109 0 108 60 1 c53 1 62 -2 80 -25z m252 10 c14 -12 18 -31 18 -75 0 -56 -1 -59 -22 -57 -13 2 -33 0 -44 -4 -12 -4 -33 -3 -48 2 -20 8 -26 17 -26 40 0 18 7 34 18 40 16 10 16 10 0 11 -22 0 -23 9 -2 38 19 27 78 30 106 5z m298 -3 c11 -11 20 -31 20 -45 0 -23 -3 -25 -51 -25 -30 0 -48 -4 -44 -10 3 -5 25 -7 52 -3 44 6 45 6 34 -16 -12 -22 -48 -41 -77 -41 -27 0 -64 47 -64 81 0 68 83 106 130 59z"/>
<path d="M10780 3099 c0 -15 5 -20 22 -17 34 5 37 38 4 38 -20 0 -26 -5 -26 -21z"/>
<path d="M10780 3020 c0 -17 5 -21 28 -18 16 2 27 9 27 18 0 9 -11 16 -27 18 -23 3 -28 -1 -28 -18z"/>
<path d="M9185 3060 c-4 -6 5 -10 20 -10 15 0 24 4 20 10 -3 6 -12 10 -20 10 -8 0 -17 -4 -20 -10z"/>
<path d="M9720 3055 c-16 -19 -3 -57 18 -53 22 4 28 53 8 61 -8 3 -20 0 -26 -8z"/>
<path d="M9901 3056 c-18 -21 -9 -51 14 -51 24 0 32 36 12 53 -11 10 -17 9 -26 -2z"/>
<path d="M10086 3057 c-26 -19 -17 -52 14 -52 18 0 26 6 28 21 4 30 -20 47 -42 31z"/>
<path d="M10276 3057 c-26 -19 -17 -52 14 -52 18 0 26 6 28 21 4 30 -20 47 -42 31z"/>
<path d="M10535 3060 c-4 -6 5 -10 20 -10 15 0 24 4 20 10 -3 6 -12 10 -20 10 -8 0 -17 -4 -20 -10z"/>
<path d="M10971 3052 c-6 -11 -6 -24 0 -35 22 -38 59 -5 39 34 -13 24 -26 24 -39 1z"/>
<path d="M11315 3060 c-3 -5 3 -10 14 -10 12 0 21 5 21 10 0 6 -6 10 -14 10 -8 0 -18 -4 -21 -10z"/>
<path d="M11620 3055 c-16 -19 -9 -49 14 -53 35 -7 49 40 17 57 -14 8 -22 7 -31 -4z"/>
<path d="M11885 3060 c-3 -5 3 -10 15 -10 12 0 18 5 15 10 -3 6 -10 10 -15 10 -5 0 -12 -4 -15 -10z"/>
<path d="M11891 3011 c-8 -5 -9 -11 -3 -15 5 -3 15 1 22 9 14 16 3 20 -19 6z"/>
<path d="M12175 3060 c-4 -6 5 -10 20 -10 15 0 24 4 20 10 -3 6 -12 10 -20 10 -8 0 -17 -4 -20 -10z"/>
<path d="M13020 3467 c-49 -25 -50 -35 -48 -429 l3 -367 23 -23 23 -23 1184 0 1184 0 23 23 23 23 0 379 0 379 -23 23 -23 23 -1172 2 c-927 2 -1177 0 -1197 -10z m2384 -23 c14 -13 16 -63 16 -394 0 -331 -2 -381 -16 -394 -14 -14 -136 -16 -1199 -16 -1063 0 -1185 2 -1199 16 -14 13 -16 63 -16 394 0 331 2 381 16 394 14 14 136 16 1199 16 1063 0 1185 -2 1199 -16z"/>
<path d="M13480 3145 c0 -10 10 -15 30 -15 l30 0 0 -85 c0 -69 3 -85 15 -85 12 0 15 16 15 85 l0 85 30 0 c20 0 30 5 30 15 0 12 -15 15 -75 15 -60 0 -75 -3 -75 -15z"/>
<path d="M14020 3060 l0 -100 34 0 c94 0 136 34 103 83 -11 17 -12 28 -6 34 18 18 5 57 -21 70 -14 7 -44 13 -67 13 l-43 0 0 -100z m101 54 c11 -14 10 -18 -6 -30 -33 -24 -55 -18 -55 16 0 25 4 30 24 30 13 0 30 -7 37 -16z m-7 -70 c9 -3 16 -14 16 -24 0 -19 -19 -30 -51 -30 -14 0 -19 7 -19 30 0 31 17 38 54 24z"/>
<path d="M14386 3151 c-3 -5 0 -14 8 -20 10 -8 16 -8 25 2 6 8 8 17 4 20 -9 10 -31 9 -37 -2z"/>
<path d="M14470 3060 c0 -82 3 -100 15 -100 12 0 15 18 15 100 0 82 -3 100 -15 100 -12 0 -15 -18 -15 -100z"/>
<path d="M14660 3127 c0 -32 -1 -33 -35 -29 -46 5 -75 -19 -75 -63 0 -56 64 -97 98 -63 9 9 12 9 12 0 0 -7 9 -12 20 -12 19 0 20 7 20 100 0 93 -1 100 -20 100 -16 0 -20 -7 -20 -33z m-2 -85 c7 -48 -51 -73 -67 -29 -13 33 5 59 37 55 19 -2 28 -10 30 -26z"/>
<path d="M13650 3030 c0 -56 3 -70 15 -70 10 0 15 10 15 28 0 48 12 72 36 78 13 3 24 12 24 20 0 17 -14 18 -41 4 -13 -7 -19 -7 -19 0 0 5 -7 10 -15 10 -12 0 -15 -14 -15 -70z"/>
<path d="M13790 3034 c28 -61 29 -67 15 -100 -13 -32 -13 -34 4 -34 14 0 28 23 55 85 52 121 51 115 29 115 -14 0 -24 -12 -33 -40 -7 -22 -16 -40 -21 -40 -4 0 -14 18 -23 40 -11 28 -22 40 -36 40 -18 0 -18 -4 10 -66z"/>
<path d="M14210 3040 c0 -55 2 -61 26 -72 20 -9 30 -9 47 1 15 10 22 11 25 2 2 -6 10 -11 18 -11 11 0 14 16 14 70 0 56 -3 70 -15 70 -11 0 -15 -11 -15 -36 0 -45 -15 -74 -39 -74 -23 0 -31 19 -31 71 0 28 -4 39 -15 39 -12 0 -15 -13 -15 -60z"/>
<path d="M14390 3030 c0 -56 3 -70 15 -70 12 0 15 14 15 70 0 56 -3 70 -15 70 -12 0 -15 -14 -15 -70z"/>
<path d="M14756 3078 c-23 -32 -20 -71 7 -96 29 -27 58 -28 88 -2 l24 21 -41 -6 c-30 -5 -44 -2 -54 9 -11 14 -6 16 45 16 l57 0 -7 27 c-10 42 -24 53 -66 53 -28 0 -42 -6 -53 -22z m73 -11 c14 -17 4 -27 -26 -27 -35 0 -28 35 8 39 4 1 12 -5 18 -12z"/>
<path d="M14920 3030 c0 -56 3 -70 15 -70 11 0 15 11 15 39 0 37 19 71 41 71 5 0 9 7 9 15 0 18 -21 20 -38 3 -9 -9 -12 -9 -12 0 0 7 -7 12 -15 12 -12 0 -15 -14 -15 -70z"/>
<path d="M9325 2307 c-20 -16 -28 -35 -32 -69 -5 -42 -3 -50 25 -78 32 -32 76 -40 113 -20 13 7 19 7 19 0 0 -5 5 -10 10 -10 6 0 10 25 10 55 l0 55 -40 0 c-22 0 -40 -4 -40 -10 0 -5 11 -10 24 -10 35 0 39 -13 15 -44 -42 -53 -109 -20 -109 54 0 47 27 80 65 80 14 0 33 -9 42 -20 18 -21 43 -27 43 -11 0 5 -12 19 -26 30 -35 28 -86 27 -119 -2z"/>
<path d="M11194 2303 c-4 -16 -12 -32 -18 -36 -8 -6 -7 -10 2 -14 8 -3 12 -26 12 -64 0 -46 3 -59 15 -59 12 0 15 13 15 60 0 47 3 60 15 60 8 0 15 5 15 10 0 6 -7 10 -15 10 -8 0 -15 9 -15 20 0 11 7 20 15 20 8 0 15 5 15 10 0 6 -11 10 -25 10 -19 0 -26 -7 -31 -27z"/>
<path d="M11730 2230 c0 -60 4 -100 10 -100 6 0 10 15 10 34 0 19 5 47 10 61 8 21 16 26 38 23 26 -3 27 -6 30 -60 2 -32 7 -58 12 -58 12 0 13 110 1 128 -9 16 -47 19 -73 8 -15 -7 -18 -3 -18 28 0 20 -4 36 -10 36 -6 0 -10 -40 -10 -100z"/>
<path d="M12137 2323 c-4 -3 -7 -16 -7 -29 0 -12 -6 -25 -12 -28 -10 -5 -10 -7 0 -12 7 -4 12 -27 12 -65 0 -33 4 -59 10 -59 6 0 10 27 10 60 l0 60 30 0 30 0 0 -60 c0 -47 3 -60 15 -60 12 0 15 14 15 70 l0 70 -39 0 c-45 0 -62 17 -38 35 10 7 17 15 17 19 0 8 -35 8 -43 -1z"/>
<path d="M12210 2315 c0 -8 7 -15 15 -15 8 0 15 7 15 15 0 8 -7 15 -15 15 -8 0 -15 -7 -15 -15z"/>
<path d="M12708 2319 c-22 -12 -24 -31 -3 -23 13 5 15 -8 15 -80 0 -70 3 -86 15 -86 12 0 15 18 15 100 0 104 -4 112 -42 89z"/>
<path d="M12810 2305 c-34 -36 -34 -113 -1 -149 26 -27 67 -34 101 -16 43 23 49 131 9 171 -28 28 -80 25 -109 -6z m90 -15 c39 -39 17 -140 -31 -140 -32 0 -59 36 -59 80 0 42 26 80 55 80 8 0 24 -9 35 -20z"/>
<path d="M13005 2305 c-33 -32 -35 -110 -4 -149 25 -32 75 -35 110 -7 21 16 24 28 24 81 0 53 -3 65 -24 81 -32 26 -77 24 -106 -6z m87 -12 c26 -23 25 -104 -2 -128 -48 -44 -105 25 -80 99 15 48 48 60 82 29z"/>
<path d="M13620 2295 c0 -33 -1 -34 -27 -24 -39 15 -77 -15 -81 -65 -5 -57 18 -76 84 -73 l54 2 0 98 c0 80 -3 97 -15 97 -10 0 -15 -11 -15 -35z m-11 -59 c30 -36 -9 -104 -46 -80 -30 19 -38 40 -25 68 13 29 52 35 71 12z"/>
<path d="M14094 2299 c3 -17 6 -49 6 -70 0 -22 5 -39 10 -39 6 0 10 30 10 70 0 58 -3 70 -16 70 -13 0 -15 -7 -10 -31z"/>
<path d="M9680 2290 c0 -12 -7 -20 -17 -20 -17 -1 -17 -1 0 -14 12 -9 17 -27 17 -58 0 -24 5 -49 12 -56 15 -15 48 -16 48 -2 0 6 -6 10 -14 10 -17 0 -26 22 -26 66 0 27 4 34 20 34 11 0 20 5 20 10 0 6 -7 10 -16 10 -9 0 -18 9 -21 20 -3 11 -9 20 -14 20 -5 0 -9 -9 -9 -20z"/>
<path d="M11640 2301 c0 -5 -8 -17 -17 -27 -13 -13 -14 -19 -5 -22 6 -2 12 -19 12 -37 0 -55 16 -85 45 -85 30 0 33 15 5 23 -16 4 -20 14 -20 51 0 39 3 46 20 46 11 0 20 5 20 10 0 6 -9 10 -20 10 -13 0 -20 7 -20 20 0 11 -4 20 -10 20 -5 0 -10 -4 -10 -9z"/>
<path d="M12540 2301 c0 -5 -8 -17 -17 -27 -13 -13 -14 -19 -5 -22 6 -2 12 -19 12 -37 0 -55 16 -85 45 -85 30 0 33 15 5 23 -16 4 -20 14 -20 51 0 39 3 46 20 46 11 0 20 5 20 10 0 6 -9 10 -20 10 -13 0 -20 7 -20 20 0 11 -4 20 -10 20 -5 0 -10 -4 -10 -9z"/>
<path d="M9540 2267 c-14 -7 -28 -26 -34 -45 -7 -27 -6 -38 11 -60 23 -31 68 -40 98 -18 27 20 11 33 -21 16 -28 -16 -57 -5 -62 24 -3 13 6 16 53 16 54 0 56 1 50 23 -7 24 -41 57 -59 57 -6 0 -22 -6 -36 -13z m68 -34 c2 -9 -9 -13 -38 -13 -37 0 -41 2 -30 16 15 17 61 15 68 -3z"/>
<path d="M11297 2260 c-53 -42 -24 -130 42 -130 34 0 71 39 71 75 0 57 -68 90 -113 55z m72 -24 c17 -20 10 -67 -11 -80 -35 -22 -74 27 -57 72 10 26 50 30 68 8z"/>
<path d="M11492 2270 c-12 -5 -29 -7 -37 -4 -12 5 -15 -6 -15 -65 0 -55 3 -71 14 -71 11 0 16 15 18 53 2 43 7 54 26 62 12 5 22 15 22 22 0 7 -1 13 -2 12 -2 0 -13 -4 -26 -9z"/>
<path d="M11920 2267 c-14 -7 -28 -26 -34 -45 -7 -27 -6 -38 11 -60 23 -31 68 -40 98 -18 27 20 11 33 -21 16 -28 -16 -57 -5 -62 24 -3 13 6 16 53 16 54 0 56 1 50 23 -7 24 -41 57 -59 57 -6 0 -22 -6 -36 -13z m68 -34 c2 -9 -9 -13 -38 -13 -37 0 -41 2 -30 16 15 17 61 15 68 -3z"/>
<path d="M12332 2270 c-12 -5 -29 -7 -37 -4 -12 5 -15 -6 -15 -65 0 -55 3 -71 14 -71 11 0 16 15 18 53 2 43 7 54 26 62 12 5 22 15 22 22 0 7 -1 13 -2 12 -2 0 -13 -4 -26 -9z"/>
<path d="M12399 2261 c-20 -16 -22 -23 -13 -38 6 -10 25 -22 43 -27 20 -6 31 -15 31 -27 0 -24 -27 -25 -52 -2 -22 19 -37 9 -22 -15 13 -21 70 -28 90 -11 25 21 12 52 -28 72 -21 9 -38 22 -38 27 0 14 47 13 52 -1 2 -7 10 -10 18 -7 10 3 9 9 -8 26 -27 27 -43 28 -73 3z"/>
<path d="M13283 2270 c-46 -19 -57 -83 -20 -118 71 -67 161 35 92 103 -26 27 -37 29 -72 15z m63 -44 c8 -34 2 -57 -18 -70 -38 -23 -78 43 -47 80 19 23 58 18 65 -10z"/>
<path d="M13477 2273 c-4 -3 -20 -6 -37 -5 l-30 1 0 -70 c0 -54 3 -69 14 -69 11 0 16 15 18 53 2 43 7 54 26 62 12 5 22 15 22 22 0 14 -4 16 -13 6z"/>
<path d="M13706 2256 c-32 -31 -34 -74 -6 -104 26 -28 71 -28 95 -2 20 22 6 27 -25 8 -23 -15 -53 -2 -58 26 -3 13 6 16 51 16 52 0 54 1 50 25 -6 29 -19 41 -55 50 -21 5 -33 1 -52 -19z m78 -21 c4 -12 -3 -15 -34 -15 -38 0 -49 8 -33 23 12 13 61 7 67 -8z"/>
<path d="M13895 2271 c-11 -5 -26 -6 -32 -4 -10 4 -13 -13 -13 -66 0 -41 4 -71 10 -71 6 0 10 18 10 41 0 47 14 79 35 79 8 0 15 7 15 15 0 8 -1 15 -2 14 -2 0 -12 -4 -23 -8z"/>
<path d="M13972 2269 c-37 -15 -27 -59 18 -74 19 -7 35 -18 35 -26 0 -20 -44 -24 -51 -5 -6 17 -34 22 -34 8 0 -17 37 -42 63 -42 22 0 57 22 57 36 0 19 -25 43 -50 49 -16 4 -32 11 -36 16 -9 15 27 23 47 11 25 -16 29 -15 29 3 0 12 -41 38 -53 34 -1 0 -12 -4 -25 -10z"/>
<path d="M14092 2148 c6 -18 28 -21 28 -4 0 9 -7 16 -16 16 -9 0 -14 -5 -12 -12z"/>
<path d="M12188 1348 c-33 -11 -39 -43 -8 -35 19 5 20 0 20 -89 0 -77 3 -94 15 -94 12 0 15 19 15 115 0 63 -3 115 -7 114 -5 0 -20 -5 -35 -11z"/>
<path d="M12302 1344 c-24 -17 -30 -44 -8 -44 7 0 19 7 26 15 20 24 55 15 55 -15 0 -17 -7 -26 -24 -30 -37 -8 -36 -26 1 -36 35 -10 47 -36 28 -59 -19 -22 -61 -19 -67 5 -6 23 -43 27 -43 5 0 -49 99 -75 135 -35 22 24 23 65 1 89 -15 16 -15 19 -1 31 21 17 19 46 -5 70 -24 24 -67 26 -98 4z"/>
<path d="M12565 1338 c-46 -40 -51 -137 -10 -182 28 -30 87 -35 122 -11 58 40 48 176 -14 204 -37 17 -69 13 -98 -11z m95 -30 c39 -43 17 -148 -31 -148 -35 0 -58 19 -65 55 -16 89 44 148 96 93z"/>
<path d="M12785 1338 c-46 -40 -51 -137 -10 -182 28 -30 87 -35 122 -11 58 40 48 176 -14 204 -37 17 -69 13 -98 -11z m95 -30 c39 -43 17 -148 -31 -148 -35 0 -58 19 -65 55 -16 89 44 148 96 93z"/>
<path d="M13005 1338 c-46 -40 -51 -137 -10 -182 28 -30 87 -35 122 -11 58 40 48 176 -14 204 -37 17 -69 13 -98 -11z m95 -30 c39 -43 17 -148 -31 -148 -35 0 -58 19 -65 55 -16 89 44 148 96 93z"/>
<path d="M13250 1271 c0 -28 -3 -31 -30 -31 -20 0 -30 -5 -30 -15 0 -10 10 -15 30 -15 27 0 30 -3 30 -31 0 -38 24 -35 28 4 3 22 8 27 33 27 19 0 29 5 29 15 0 10 -10 15 -29 15 -25 0 -30 5 -33 27 -4 39 -28 42 -28 4z"/>
<path d="M12460 1144 c-23 -60 0 -76 25 -18 18 45 18 44 0 44 -9 0 -20 -12 -25 -26z"/>
<path d="M10510 747 c0 -96 13 -117 72 -117 54 0 70 26 76 120 4 69 2 80 -12 80 -13 0 -16 -11 -16 -59 0 -33 -4 -72 -10 -86 -8 -22 -15 -26 -42 -23 -38 4 -45 22 -47 111 -1 31 -5 57 -11 57 -6 0 -10 -34 -10 -83z"/>
<path d="M11430 730 c0 -82 3 -100 15 -100 11 0 15 11 15 43 0 50 18 81 46 75 16 -3 20 -13 22 -61 2 -42 7 -57 17 -57 12 0 15 14 15 60 0 52 -3 62 -24 75 -19 13 -29 14 -45 6 -29 -16 -31 -14 -31 24 0 24 -5 35 -15 35 -12 0 -15 -18 -15 -100z"/>
<path d="M11340 801 c0 -5 -7 -17 -17 -26 -10 -11 -12 -19 -6 -23 6 -4 13 -29 15 -56 6 -49 18 -66 51 -66 24 0 22 26 -3 33 -16 4 -20 14 -20 46 0 34 3 41 20 41 11 0 20 5 20 10 0 6 -7 10 -16 10 -9 0 -18 9 -21 20 -5 20 -23 28 -23 11z"/>
<path d="M11770 795 c0 -7 -8 -19 -17 -25 -17 -10 -17 -10 0 -20 12 -8 17 -24 17 -59 0 -35 4 -51 16 -55 27 -10 44 -7 44 9 0 8 -6 15 -14 15 -31 0 -37 79 -6 87 24 6 27 23 4 23 -9 0 -18 9 -21 20 -6 23 -23 27 -23 5z"/>
<path d="M11950 791 c0 -11 -6 -22 -12 -25 -10 -5 -10 -7 0 -12 7 -3 12 -25 12 -53 0 -26 5 -52 12 -59 17 -17 58 -15 58 3 0 8 -9 15 -20 15 -17 0 -20 7 -20 45 0 38 3 45 20 45 11 0 20 5 20 10 0 6 -9 10 -20 10 -13 0 -20 7 -20 20 0 11 -7 20 -15 20 -8 0 -15 -9 -15 -19z"/>
<path d="M12480 801 c0 -5 -7 -17 -17 -26 -10 -11 -12 -19 -6 -23 6 -4 13 -29 15 -56 6 -49 18 -66 51 -66 24 0 22 26 -3 33 -16 4 -20 14 -20 46 0 34 3 41 20 41 11 0 20 5 20 10 0 6 -7 10 -16 10 -9 0 -18 9 -21 20 -5 20 -23 28 -23 11z"/>
<path d="M10709 761 c-19 -16 -22 -23 -13 -38 6 -10 25 -22 42 -28 18 -5 32 -15 32 -22 0 -22 -29 -27 -50 -8 -23 21 -39 12 -24 -13 13 -21 70 -28 90 -11 17 14 19 58 2 64 -66 23 -71 26 -60 37 9 9 18 8 37 -2 34 -18 46 -3 16 21 -29 24 -43 24 -72 0z"/>
<path d="M10873 770 c-26 -11 -43 -39 -43 -73 0 -29 39 -67 69 -67 28 0 61 17 61 32 0 10 -16 8 -51 -6 -18 -8 -53 20 -44 35 4 5 28 9 56 9 57 0 64 16 24 55 -26 27 -37 29 -72 15z m57 -35 c11 -13 7 -15 -30 -15 -37 0 -41 2 -30 15 7 8 20 15 30 15 10 0 23 -7 30 -15z"/>
<path d="M11067 773 c-4 -3 -20 -6 -37 -5 l-30 1 0 -70 c0 -55 3 -69 15 -69 11 0 15 12 15 50 0 44 3 52 25 62 14 6 25 17 25 25 0 14 -3 16 -13 6z"/>
<path d="M11140 773 c-48 -17 -42 -67 10 -78 35 -8 48 -24 29 -36 -19 -12 -25 -11 -43 6 -16 17 -36 20 -36 6 0 -19 32 -41 60 -41 26 0 60 22 60 38 -1 18 -22 38 -52 48 -38 13 -43 28 -10 32 12 2 22 -1 22 -7 0 -6 7 -11 15 -11 25 0 17 30 -11 40 -14 6 -26 10 -27 9 -1 0 -9 -3 -17 -6z"/>
<path d="M11634 770 c-24 -10 -39 -28 -30 -37 3 -4 17 -1 30 7 25 13 56 8 56 -9 0 -5 -18 -12 -40 -16 -45 -8 -62 -29 -49 -62 7 -20 15 -23 64 -22 l55 2 0 51 c0 74 -34 107 -86 86z m51 -79 c7 -12 -24 -43 -39 -38 -19 6 -18 35 1 40 29 8 32 7 38 -2z"/>
<path d="M12117 773 c-4 -3 -20 -6 -37 -5 l-30 1 0 -70 c0 -55 3 -69 15 -69 11 0 15 12 15 50 0 44 3 52 25 62 14 6 25 17 25 25 0 14 -3 16 -13 6z"/>
<path d="M12342 764 c-33 -23 -25 -55 17 -69 19 -6 37 -17 39 -23 7 -21 -28 -25 -48 -7 -23 21 -39 12 -24 -13 13 -21 70 -28 90 -11 28 23 17 55 -26 72 -22 8 -40 20 -40 26 0 14 33 14 47 0 6 -6 17 -9 24 -7 9 3 6 11 -9 26 -26 26 -40 27 -70 6z"/>
<path d="M12832 769 c-37 -14 -27 -59 17 -74 19 -6 37 -17 39 -23 6 -20 -27 -26 -47 -8 -19 17 -41 21 -41 8 0 -21 40 -43 71 -40 64 6 65 63 0 82 -17 5 -31 15 -31 22 0 16 36 19 45 4 9 -15 25 -12 25 5 0 12 -41 38 -53 34 -1 0 -12 -4 -25 -10z"/>
<path d="M12150 728 c0 -59 19 -92 53 -96 16 -2 35 2 43 9 10 8 14 8 14 0 0 -6 5 -11 10 -11 6 0 10 30 10 70 0 56 -3 70 -15 70 -11 0 -15 -12 -15 -50 0 -38 -4 -52 -19 -60 -30 -15 -51 12 -51 66 0 32 -4 44 -15 44 -11 0 -15 -11 -15 -42z"/>
<path d="M12640 722 c0 -70 19 -91 80 -90 l50 1 0 69 c0 54 -3 68 -15 68 -11 0 -15 -12 -15 -50 0 -40 -4 -51 -21 -60 -32 -18 -49 4 -49 61 0 37 -4 49 -15 49 -11 0 -15 -12 -15 -48z"/>
</g>
</svg>